<svg width="50" height="50" viewBox="0 0 50 50" fill="none" xmlns="http://www.w3.org/2000/svg">
<g id="Car">
<path id="Shape" fill-rule="evenodd" clip-rule="evenodd" d="M6.04695 19.5798L6.02204 19.5964C4.86288 20.3692 4.16663 21.6702 4.16663 23.0633V39.5834C4.16663 40.734 5.09937 41.6667 6.24996 41.6667H8.33329C9.48389 41.6667 10.4166 40.734 10.4166 39.5834V37.5H39.5833V39.5834C39.5833 40.734 40.516 41.6667 41.6666 41.6667H43.75C44.9006 41.6667 45.8333 40.734 45.8333 39.5834V23.0633C45.8333 21.6702 45.137 20.3692 43.9779 19.5964L43.953 19.5798C44.7122 19.1413 45.3999 18.7105 45.5335 18.5186C45.8558 18.0556 46.0038 16.6667 45.5335 16.6667H41.6666L39.2274 11.7883C38.1687 9.67089 36.0046 8.33337 33.6372 8.33337H16.3627C13.9953 8.33337 11.8312 9.67089 10.7725 11.7883L8.33329 16.6667H4.46638C3.99608 16.6667 4.14414 18.0556 4.46638 18.5186C4.6 18.7105 5.28767 19.1413 6.04695 19.5798ZM12.7124 12.6226L9.15029 19.3015C8.78023 19.9954 9.28303 20.8334 10.0694 20.8334H39.9305C40.7169 20.8334 41.2197 19.9954 40.8496 19.3015L37.2875 12.6226C36.5634 11.2648 35.1499 10.4167 33.6111 10.4167H16.3889C14.8501 10.4167 13.4365 11.2648 12.7124 12.6226ZM6.24996 27.2498V24.7303C6.24996 23.9263 7.12206 23.4254 7.81649 23.8305L14.7724 27.8881C15.731 28.4473 15.267 29.9181 14.161 29.826L8.16028 29.3259C7.08051 29.2359 6.24996 28.3333 6.24996 27.2498ZM43.75 24.7303V27.2498C43.75 28.3333 42.9194 29.2359 41.8396 29.3259L35.8389 29.826C34.7329 29.9181 34.2689 28.4473 35.2275 27.8881L42.1834 23.8305C42.8779 23.4254 43.75 23.9263 43.75 24.7303Z" fill="black"/>
</g>
</svg>
