<svg width="48" height="46" viewBox="0 0 48 46" fill="none" xmlns="http://www.w3.org/2000/svg">
<g id="Group">
<path id="Ellipse 46" d="M30.7779 15.8039C30.7779 19.3929 27.7717 22.3529 24.0001 22.3529C20.2285 22.3529 17.2223 19.3929 17.2223 15.8039C17.2223 12.2149 20.2285 9.25488 24.0001 9.25488C27.7717 9.25488 30.7779 12.2149 30.7779 15.8039Z" stroke="#33363F" stroke-width="2" stroke-linecap="round"/>
<path id="Ellipse 47" d="M29.5299 15.3714C30.1658 14.3024 31.2188 13.5139 32.4642 13.19C33.7102 12.866 35.0369 13.0364 36.1501 13.6602C37.2624 14.2835 38.0652 15.3047 38.3929 16.4918C38.7204 17.678 38.5499 18.9429 37.9147 20.0107C37.2788 21.0797 36.2258 21.8682 34.9804 22.1921C33.7344 22.5161 32.4077 22.3457 31.2945 21.7219C30.1822 21.0986 29.3794 20.0774 29.0517 18.8903C28.7242 17.7041 28.8947 16.4392 29.5299 15.3714L29.5299 15.3714Z" stroke="#33363F" stroke-width="2"/>
<path id="Ellipse 48" d="M10.0855 15.3714C10.7214 14.3024 11.7743 13.5139 13.0198 13.19C14.2657 12.866 15.5925 13.0364 16.7057 13.6602C17.818 14.2835 18.6208 15.3047 18.9485 16.4918C19.276 17.678 19.1054 18.9429 18.4702 20.0107C17.8343 21.0797 16.7814 21.8682 15.5359 22.1921C14.29 22.5161 12.9633 22.3457 11.85 21.7219C10.7378 21.0986 9.93495 20.0774 9.60723 18.8903C9.27975 17.7041 9.45029 16.4392 10.0855 15.3714L10.0855 15.3714Z" stroke="#33363F" stroke-width="2"/>
<path id="Subtract" d="M33.4921 34.6765L32.513 34.8796L32.6783 35.6765H33.4921V34.6765ZM41.2614 33.568L42.2263 33.3053L41.2614 33.568ZM29.4072 28.4684L28.8139 27.6635L27.6096 28.5513L28.8905 29.3245L29.4072 28.4684ZM40.363 33.6765H33.4921V35.6765H40.363V33.6765ZM40.2966 33.8308C40.2935 33.8194 40.2907 33.7954 40.2974 33.7659C40.3036 33.7382 40.3157 33.717 40.3272 33.7031C40.35 33.6755 40.3694 33.6765 40.363 33.6765V35.6765C41.5394 35.6765 42.5799 34.6035 42.2263 33.3053L40.2966 33.8308ZM33.7223 28.1274C35.9783 28.1274 37.4553 29.0594 38.4576 30.216C39.4875 31.4043 40.0303 32.853 40.2966 33.8308L42.2263 33.3053C41.9213 32.1852 41.2755 30.4136 39.969 28.9061C38.6351 27.3669 36.6282 26.1274 33.7223 26.1274V28.1274ZM30.0006 29.2733C30.9099 28.603 32.1091 28.1274 33.7223 28.1274V26.1274C31.6801 26.1274 30.0654 26.7408 28.8139 27.6635L30.0006 29.2733ZM28.8905 29.3245C31.2342 30.7393 32.1559 33.1586 32.513 34.8796L34.4713 34.4733C34.0658 32.5194 32.9618 29.446 29.924 27.6123L28.8905 29.3245Z" fill="#33363F"/>
<path id="Subtract_2" d="M18.5929 28.4684L19.1097 29.3245L20.3906 28.5513L19.1863 27.6635L18.5929 28.4684ZM6.73873 33.568L5.77387 33.3052L6.73873 33.568ZM14.508 34.6765V35.6765H15.3218L15.4871 34.8796L14.508 34.6765ZM14.2779 28.1274C15.8911 28.1274 17.0903 28.603 17.9995 29.2733L19.1863 27.6635C17.9348 26.7408 16.32 26.1274 14.2779 26.1274V28.1274ZM7.70359 33.8308C7.96987 32.853 8.51271 31.4043 9.54257 30.216C10.5449 29.0594 12.0219 28.1274 14.2779 28.1274V26.1274C11.372 26.1274 9.36514 27.3669 8.03117 28.9061C6.72473 30.4136 6.0789 32.1852 5.77387 33.3052L7.70359 33.8308ZM7.63713 33.6765C7.63075 33.6765 7.65017 33.6755 7.673 33.7031C7.68452 33.717 7.69653 33.7382 7.7028 33.7659C7.70948 33.7954 7.70668 33.8194 7.70359 33.8308L5.77387 33.3052C5.4203 34.6035 6.46077 35.6765 7.63713 35.6765V33.6765ZM14.508 33.6765H7.63713V35.6765H14.508V33.6765ZM15.4871 34.8796C15.8443 33.1586 16.766 30.7393 19.1097 29.3245L18.0761 27.6123C15.0384 29.446 13.9343 32.5194 13.5288 34.4733L15.4871 34.8796Z" fill="#33363F"/>
<path id="Rectangle 4160" d="M24.0001 27.1274C31.7663 27.1274 33.3288 33.1487 33.6431 35.5716C33.7142 36.1193 33.2746 36.5637 32.7223 36.5637H15.2779C14.7256 36.5637 14.286 36.1193 14.357 35.5716C14.6714 33.1487 16.2339 27.1274 24.0001 27.1274Z" stroke="#33363F" stroke-width="2" stroke-linecap="round"/>
</g>
</svg>
