<svg width="50" height="50" viewBox="0 0 50 50" fill="none" xmlns="http://www.w3.org/2000/svg">
<g id="user-identifier-card">
<g id="user-identifier-card_2">
<path id="Subtract" fill-rule="evenodd" clip-rule="evenodd" d="M0 10.7143C0 8.74182 1.59898 7.14282 3.57143 7.14282H46.4286C48.4011 7.14282 50 8.74182 50 10.7143V39.2857C50 41.2582 48.4011 42.8571 46.4286 42.8571H3.57143C1.59899 42.8571 0 41.2582 0 39.2857V10.7143ZM21.4286 19.6428C21.4286 22.6015 19.0301 25 16.0714 25C13.1128 25 10.7143 22.6015 10.7143 19.6428C10.7143 16.6841 13.1128 14.2857 16.0714 14.2857C19.0301 14.2857 21.4286 16.6841 21.4286 19.6428ZM5.52375 33.2221C8.13593 30.3641 11.8942 28.5714 16.0713 28.5714C20.2484 28.5714 24.0067 30.3641 26.6189 33.2221C27.5467 34.2373 26.7252 35.7143 25.3499 35.7143H6.79271C5.41739 35.7143 4.59589 34.2373 5.52375 33.2221ZM31.6963 19.6429C31.6963 18.4101 32.6957 17.4108 33.9285 17.4108H41.0714C42.3039 17.4108 43.3036 18.4101 43.3036 19.6429C43.3036 20.8757 42.3039 21.8751 41.0714 21.8751H33.9285C32.6957 21.8751 31.6963 20.8757 31.6963 19.6429ZM33.9285 28.1251C32.6957 28.1251 31.6963 29.1244 31.6963 30.3572C31.6963 31.59 32.6957 32.5894 33.9285 32.5894H41.0714C42.3039 32.5894 43.3036 31.59 43.3036 30.3572C43.3036 29.1244 42.3039 28.1251 41.0714 28.1251H33.9285Z" fill="black"/>
</g>
</g>
</svg>
